<svg xmlns="http://www.w3.org/2000/svg" width="192" height="192" viewBox="0 0 512 512">
  <defs>
    <linearGradient id="bg" x1="0" y1="0" x2="1" y2="1"><stop offset="0" stop-color="#111214"/><stop offset="1" stop-color="#050506"/></linearGradient>
    <linearGradient id="red" x1="0" y1="0" x2="1" y2="1"><stop offset="0" stop-color="#ff2a32"/><stop offset="1" stop-color="#e3000f"/></linearGradient>
  </defs>
  <rect x="18" y="18" width="476" height="476" rx="105" fill="url(#bg)"/>
  <path d="M18 18h212L18 230z" fill="url(#red)"/>
  <path d="M494 494H282l212-212z" fill="url(#red)"/>

  <g transform="translate(76 78)">
    <rect x="24" y="38" width="214" height="230" rx="24" fill="none" stroke="#fff" stroke-width="22"/>
    <rect x="78" y="10" width="105" height="52" rx="16" fill="#f31924"/>
    <circle cx="130" cy="18" r="13" fill="#111214"/>

    <g fill="none" stroke="#f31924" stroke-width="14" stroke-linecap="round" stroke-linejoin="round">
      <path d="M61 104l15 15 28-31"/>
      <path d="M61 162l15 15 28-31"/>
      <path d="M61 220l15 15 28-31"/>
    </g>
    <g stroke="#fff" stroke-width="13" stroke-linecap="round">
      <path d="M124 102h68"/>
      <path d="M124 123h46"/>
      <path d="M124 160h68"/>
      <path d="M124 181h46"/>
      <path d="M124 218h68"/>
      <path d="M124 239h46"/>
    </g>
  </g>

  <g transform="translate(294 148)">
    <path d="M0 112C48 89 82 60 118 20" fill="none" stroke="#fff" stroke-width="18" stroke-linecap="round"/>
    <path d="M100 17l35-6-7 35" fill="#fff"/>
    <rect x="8" y="126" width="31" height="82" rx="8" fill="#f31924"/>
    <rect x="55" y="101" width="31" height="107" rx="8" fill="#f31924"/>
    <rect x="102" y="72" width="31" height="136" rx="8" fill="#f31924"/>
  </g>

  <g transform="translate(304 305)">
    <path d="M8 36l55-27 62 26-58 30z" fill="#fff"/>
    <path d="M8 36v55l59 28V65z" fill="#d9d9db"/>
    <path d="M67 65v54l58-28V35z" fill="#f5f5f5"/>
    <path d="M-1 102h137v18H-1z" fill="#fff"/>
    <path d="M12 120h112v19H12z" fill="#bfc1c5"/>
  </g>

  <text x="118" y="448" font-family="Arial,Helvetica,sans-serif" font-size="116" font-weight="900" fill="#fff" font-style="italic">A</text>
  <text x="251" y="448" font-family="Arial,Helvetica,sans-serif" font-size="116" font-weight="900" fill="#f31924" font-style="italic">P</text>
</svg>